<svg width="800" height="600" xmlns="http://www.w3.org/2000/svg">

 <g>
  <title>Layer 1</title>
  <path stroke-width="5" d="m349,293c3,-1 6.74182,-3.32718 13,-8c5.77808,-4.31436 13,-10 20,-18c7,-8 13.34491,-15.75258 19,-24c5.33499,-7.78061 9.46872,-15.53976 11,-23c1.00534,-4.89789 0.48874,-11.02997 0,-15c-0.50378,-4.09221 -1.71411,-7.21167 -4,-10c-0.89661,-1.09367 -2.69345,-2.4588 -4,-3c-1.84775,-0.76537 -4.23297,-0.41028 -8,2c-5.39359,3.45099 -11.37912,12.46469 -19,22c-9.28131,11.61282 -20.2175,25.86255 -29,40c-9.2308,14.85909 -18.81308,31.33475 -25,51c-4.29692,13.65784 -5,29 -5,40c0,9 2.97011,16.41153 8,19c5.4086,2.78336 11.07747,1.96109 17,1c9.36432,-1.51962 17.45404,-7.51276 25,-15c8.54788,-8.48135 17.47162,-20.40439 26,-31c7.55029,-9.38046 13.89682,-18.6113 17,-27c2.86099,-7.73399 2,-13 2,-17c0,-1 -0.81265,-0.7932 -3,1c-2.78833,2.28587 -5.07858,4.93813 -9,10c-3.0621,3.95267 -5,7 -6,9c-1,2 -1.70709,2.70709 -1,2c0.70709,-0.70709 1.61731,-1.07611 2,-2c0.5412,-1.30655 1.29291,-2.70709 2,-2c0.70709,0.70709 1,2 2,2c1,0 2,1 5,1c2,0 5.06601,0.12234 7,-1c3.11847,-1.80972 4.81265,-2.20682 7,-4c2.78833,-2.28589 4.87857,-3.49347 8,-4c0.98709,-0.16019 2,0 3,0c1,0 1.29291,1.70709 2,1c0.70709,-0.70709 -1.186,-0.30746 -3,1c-2.29453,1.65381 -6.94003,5.37537 -10,11c-3.0224,5.55563 -4.49756,15.92578 -5,21c-0.59122,5.97079 1.41156,15.40402 5,20c3.48129,4.45877 7.83127,8.22055 13,12c2.91046,2.12817 4,2 4,1c0,-1 0,-3 0,-5c0,-5 0.41241,-7.01703 0,-12c-0.50171,-6.06204 -1.49622,-8.90778 -2,-13c-0.24435,-1.98502 -0.70709,-3.29291 0,-4c0.70709,-0.70709 3.0535,-0.5405 5,-1c2.17624,-0.51373 4,-1 6,-2l2,0l0,-1" id="svg_26" stroke="#ffffff" fill="none"/>
  <path stroke-width="5" d="m426,292c0,-1 0,-2 1,-2c2,0 5,-1 11,-1c6,0 13.03043,-0.80615 20,-2c5.02582,-0.86089 9.4505,-2.45049 12,-5c2.5495,-2.54951 3.49347,-5.87856 4,-9c0.48056,-2.96126 0,-7 0,-10c0,-3 -1.4588,-5.69344 -2,-7c-0.38269,-0.92387 0.1731,-1.85274 1,-3c1.30746,-1.814 2.38904,-4.65593 5,-8c3.58844,-4.59599 7.83469,-12.08554 11,-18c3.80423,-7.10829 10.71317,-20.79291 13,-30c1.46625,-5.9034 2,-14 2,-20c0,-5 0,-11 0,-18c0,-8 0,-16 0,-28c0,-11 -1.0907,-24.21534 2,-37c2.22925,-9.2212 5.06473,-16.39784 8,-22c2.32053,-4.4289 4.69254,-7.18601 6,-9c0.8269,-1.14727 2,-2 3,-2c1,0 2.1731,-0.14727 3,1c1.30746,1.81399 3.52313,4.68246 7,11c4.74869,8.62844 7.55698,22.87434 10,35c2.59781,12.89385 3.34708,27.06061 2,42c-2.00812,22.27032 -10,39 -15,49c-3,6 -4.69345,10.5412 -6,10c-0.92389,-0.38269 -0.28979,-3.04291 0,-4c1.04483,-3.45085 1.33749,-5.31001 3,-8c0.7435,-1.203 3,-2 2,-2c-1,0 0.66821,8.00919 1,14c0.50076,9.04153 0.50513,16.02045 1,22c0.50171,6.06204 1,11 2,16c1,5 0.51944,8.03874 1,11c0.50653,3.12144 1,7 1,9c0,2 -0.53238,4.19891 -2,7c-2.32053,4.42889 -7.67981,8.35873 -11,11c-7.38284,5.87314 -13.09116,7.79568 -20,11c-8.11404,3.76328 -17.95798,8.13083 -24,10c-6.9549,2.15158 -11.64749,4.9725 -16,6c-0.97324,0.22977 -1.38269,1.07611 -1,2c0.5412,1.30655 2.186,0.69254 4,2c2.29453,1.65381 3.186,2.69254 5,4c1.14728,0.8269 2.14935,1.47427 3,2c1.9021,1.17557 2,3 2,5c0,2 0,4 0,5c0,2 -2,4 -3,5c-1,1 -4.93796,2.49829 -11,3c-3.98636,0.32993 -10.92578,-0.49756 -16,-1c-3.98053,-0.39417 -7,-1 -8,-2c-1,-1 -3.08398,-2.96017 -4,-5c-2.20605,-4.91257 -3.44839,-8.80566 -5,-13c-1.43048,-3.867 -2.49622,-8.90778 -3,-13c-0.24435,-1.98502 -1.41422,-4.58578 0,-6c0.70709,-0.70709 1.82376,-0.48627 4,-1c1.9465,-0.4595 4.31,-0.33749 7,-2c1.203,-0.7435 4,-2 7,-5c2,-2 5,-5 7,-9c3,-6 4.37405,-10.9003 5,-14c2.5809,-12.78041 1.61093,-20.03746 1,-25c-0.50378,-4.09221 -2.33749,-8.31001 -4,-11c-1.487,-2.40601 -2,-3 -2,-4c0,-1 0,-4 0,-9c0,-5 -1.84842,-10.0451 -4,-17c-2.80377,-9.06305 -5.76819,-18.71751 -12,-28c-5.92514,-8.82568 -11.4201,-14.70152 -17,-23c-3.2536,-4.83881 -7.07858,-10.93813 -11,-16c-3.0621,-3.95265 -6.724,-8.22273 -10,-12c-3.70639,-4.27349 -7.51929,-6.55819 -10,-10c-1.30746,-1.814 -1,-3 0,-3c2,0 8.0271,0.88178 17,3c12.03842,2.84189 28.09009,5.41263 43,8c14.10699,2.44804 27.43658,3.58418 36,7c5.41599,2.16035 8.49347,5.87856 9,9c1.12128,6.90961 -1.12625,16.96299 -4,27c-3.1384,10.96132 -7.68631,20.75211 -11,31c-2.53711,7.84622 -4,16 -4,21c0,3 0.07611,4.38269 1,4c1.30655,-0.5412 3.69254,-4.186 5,-6c2.48071,-3.4418 5,-5 7,-8c2,-3 4,-6 6,-8c2,-2 3.69345,-3.4588 5,-4c0.92389,-0.38269 2.02676,-0.22975 3,0c4.35251,1.02748 8.22272,5.72398 12,9c4.2735,3.70638 7.40894,7.77637 10,13c2.39297,4.82428 3.49756,10.9258 4,16c0.59122,5.97079 0,11 0,16c0,3 0.4595,6.0535 0,8c-0.51373,2.17625 -0.67963,4.02582 -1,6c-0.50653,3.12144 -1.4588,4.69344 -2,6c-1.14804,2.77164 0,4 0,6c0,1 -1,4 -1,5c0,2 -1.48627,2.82375 -2,5c-0.4595,1.9465 -3.1731,5.85272 -4,7c-2.6149,3.62799 -3.35724,9.25406 -6,15c-2.43649,5.29749 -7.40894,13.77637 -10,19c-2.39297,4.82428 -4.06473,9.39783 -7,15c-2.32053,4.42889 -5.06143,7.99149 -6,15c-1.07013,7.99094 -2,12 -2,16c0,6 0,10 0,12c0,1 -1,1 -3,1c-3,0 -7,0 -12,0c-4,0 -9.07278,-1.8819 -14,-5c-6.09344,-3.85614 -13.23404,-10.80112 -20,-19c-7.25708,-8.79401 -12.67261,-16.70847 -15,-23c-1.43048,-3.867 -2.70709,-6.29291 -2,-7c0.70709,-0.70709 4.37134,4.74673 7,9c2.35114,3.80423 4.6514,8.21106 9,15c4.63989,7.24371 8.72809,12.68808 14,26c3.4931,8.82031 7,15 10,21c3,6 4,11 4,14c0,1 -1,3 -2,4c-2,2 -3.57111,3.67947 -8,6c-8.40323,4.40289 -15.88947,6.24554 -29,12c-11.90384,5.22479 -23.67691,10.7973 -50,21c-16.8093,6.5152 -34.82629,12.53705 -65,22c-16.90805,5.30264 -44.07477,10.65698 -54,13c-11.09674,2.6196 -21,5 -21,6c0,2 4,0 7,0c4,0 6.07843,0.21014 9,-1c6.19757,-2.56711 11.60641,-6.54901 17,-10c9.4176,-6.0257 20.26109,-11.56088 39,-23c14.20563,-8.67181 27.34756,-16.48032 47,-30c11.20587,-7.70898 29.23441,-19.70862 38,-27c9.25751,-7.70056 17.39352,-13.19019 21,-21c1.72861,-3.74326 1.85065,-6.52573 1,-6c-1.9021,1.17557 -1.59787,4.04083 -2,6c-1.53128,7.46024 -4.59723,13.08905 -7,23c-1.71527,7.07516 -4,17 -4,21c0,2 1.02676,3.22977 2,3c2.17624,-0.51373 6,-3 10,-7c3,-3 6.74023,-6.24005 16,-16c4.86682,-5.1297 9.77615,-10.46765 13,-16c2.71133,-4.6528 2.28979,-5.95709 2,-5c-1.04483,3.45084 -4.56351,6.70251 -7,12c-2.64276,5.74594 -5.13083,11.95798 -7,18c-2.15158,6.9549 -2.38269,9.92389 -2,9c0.5412,-1.30655 1.61066,-2.15927 3,-5c1.58411,-3.23892 2.49295,-7.23401 5,-12c1.67856,-3.19098 3,-4 3,-2c0,4 0,7 0,13c0,6 -0.73309,15.04495 0,21c0.50378,4.09222 2.18875,6.58472 3,6c2.56537,-1.84903 2.44879,-4.82425 5,-12c2.43878,-6.85947 4.58481,-14.16824 8,-22c2.6814,-6.14899 3.58578,-11.58578 5,-13c0.70709,-0.70709 1,1 1,3c0,3 -1,6 -1,12c0,7 -0.75,17.11533 1,26c1.40692,7.14288 1.49295,15.23401 4,20c1.67856,3.19098 3,5 4,4c2,-2 3.29349,-4.88138 6,-12c5.61905,-14.77924 7.85883,-25.04111 12,-39c3.8685,-13.03973 8.49353,-25.79105 10,-42c1.57321,-16.92706 0.74011,-33.15665 -3,-49c-3.34525,-14.17072 -8.80002,-26.78049 -15,-35c-2.5549,-3.38712 -3.61731,-3.92389 -4,-3c-0.5412,1.30655 -3.99399,5.83551 -5,15c-1.52765,13.91641 -0.49704,31.02957 1,52c1.50211,21.04147 3.65628,41.05197 7,62c2.72101,17.04688 5.73694,28.09201 9,37c1.85226,5.05658 3.61731,8.07611 4,9c0.5412,1.30655 0.203,0.7435 -1,0c-2.69,-1.66251 -5.89349,-3.19669 -15,-8c-17.80023,-9.38892 -39.66425,-18.03992 -63,-25c-27.65775,-8.24915 -47.82629,-11.19223 -85,-16c-30.88757,-3.99475 -54.07727,-3.01013 -86,-6c-16.05426,-1.50363 -26.28978,-3.04291 -26,-4c1.04483,-3.45084 8.3968,-10.05307 20,-16c14.37717,-7.36865 45.80765,-16.68042 73,-24c32.78873,-8.82602 69.01111,-17.95392 94,-24c41.01837,-9.92441 78.19086,-16.19778 105,-23c21.16953,-5.37131 37.47784,-9.83194 46,-14c3.23892,-1.58411 3,-1 2,0c-1,1 -1,2 -1,3c0,1 -1,1 0,1l1,0l2,0l1,0" id="svg_27" stroke="#ffffff" fill="none"/>
 </g>
</svg>